<?xml version="1.0" standalone="no"?>
<!DOCTYPE svg PUBLIC "-//W3C//DTD SVG 20010904//EN"
 "http://www.w3.org/TR/2001/REC-SVG-20010904/DTD/svg10.dtd">
<svg version="1.0" xmlns="http://www.w3.org/2000/svg"
 width="700.000000pt" height="700.000000pt" viewBox="0 0 700.000000 700.000000"
 preserveAspectRatio="xMidYMid meet">
<metadata>
Created by potrace 1.14, written by Peter Selinger 2001-2017
</metadata>
<g transform="translate(0.000000,700.000000) scale(0.100000,-0.100000)"
fill="#000000" stroke="none">
<path d="M2708 6415 c-2 -2 -23 -6 -47 -9 -43 -6 -267 -73 -403 -121 -248 -88
-435 -258 -547 -496 -114 -242 -159 -668 -116 -1094 6 -59 8 -73 19 -145 106
-724 490 -1630 1049 -2475 76 -114 247 -351 293 -405 12 -14 57 -68 100 -120
158 -190 419 -437 609 -577 91 -67 292 -193 308 -193 7 0 23 -9 37 -20 14 -11
28 -20 32 -20 4 0 37 -14 73 -31 180 -83 335 -123 480 -123 160 0 274 28 415
102 101 52 162 103 336 278 154 154 232 250 249 304 4 14 11 30 15 35 38 51
60 280 36 390 -31 147 -15 119 -454 764 -81 119 -190 202 -324 247 -105 36
-195 38 -333 9 -11 -2 -168 -54 -350 -114 -181 -61 -335 -111 -341 -111 -14 0
-211 171 -285 247 -259 270 -466 609 -587 958 -31 91 -57 179 -66 225 -2 14
-10 50 -16 80 -6 30 -13 73 -16 95 -3 22 -7 46 -10 54 -5 15 27 47 306 311
295 278 325 311 371 401 63 125 74 176 74 329 0 103 -14 171 -51 255 -7 17
-38 91 -69 165 -31 74 -62 146 -68 160 -6 14 -11 27 -12 30 0 3 -11 27 -23 54
-12 27 -22 50 -22 52 0 5 -32 78 -63 144 -102 217 -303 355 -532 365 -35 1
-65 1 -67 0z"/>
</g>
</svg>
